<svg width="38" height="36" viewBox="0 0 38 36" fill="none" xmlns="http://www.w3.org/2000/svg">
<path d="M36.875 15.7917L22.2917 1.20838C21.499 0.41942 20.3456 0.11328 19.266 0.405283C18.1864 0.697286 17.3446 1.54307 17.0577 2.62403C16.7708 3.705 17.0823 4.85692 17.875 5.64588L27.1042 14.8542H3.33334C1.60745 14.8542 0.208344 16.2533 0.208344 17.9792C0.208344 19.7051 1.60745 21.1042 3.33334 21.1042H27.1042L17.875 30.3126C16.9824 31.2062 16.7156 32.5494 17.1988 33.7164C17.682 34.8834 18.8203 35.6448 20.0833 35.6459C20.922 35.6334 21.7194 35.2799 22.2917 34.6667L36.875 20.0834C38.0936 18.8633 38.0936 16.8868 36.875 15.6667V15.7917Z" fill="white"/>
</svg>
