<svg width="70" height="70" viewBox="0 0 70 70" fill="none" xmlns="http://www.w3.org/2000/svg">
<path fill-rule="evenodd" clip-rule="evenodd" d="M51.2101 5.83325H18.7768C11.3885 6.08683 5.59743 12.2692 5.82677 19.6583V38.6749C5.71694 42.2435 7.034 45.7087 9.48642 48.3035C11.9388 50.8982 15.3243 52.4085 18.8934 52.4999H46.6601C48.5816 52.5396 50.4039 53.3612 51.7059 54.7749L58.6184 62.1541C59.2041 62.7928 60.027 63.1621 60.8934 63.1749C61.7883 63.1521 62.637 62.7725 63.2505 62.1207C63.864 61.4688 64.1915 60.5987 64.1601 59.7041V19.6583C64.3894 12.2692 58.5984 6.08683 51.2101 5.83325ZM18.7768 48.1249C13.804 47.8733 9.97055 43.6487 10.2018 38.6749V19.6583C9.97055 14.6845 13.804 10.4599 18.7768 10.2083H51.2101C56.1829 10.4599 60.0163 14.6845 59.7851 19.6583V56.9916L55.0309 51.7999C52.8568 49.4872 49.8341 48.1602 46.6601 48.1249H18.7768Z" fill="#0057B8"/>
<path d="M45.931 25.5208H31.3476C30.1395 25.5208 29.1601 24.5414 29.1601 23.3333C29.1601 22.1251 30.1395 21.1458 31.3476 21.1458H45.931C47.1391 21.1458 48.1185 22.1251 48.1185 23.3333C48.1185 24.5414 47.1391 25.5208 45.931 25.5208V25.5208Z" fill="#0057B8"/>
<path d="M24.056 32.8125H45.931C47.1391 32.8125 48.1185 33.7919 48.1185 35C48.1185 36.2081 47.1391 37.1875 45.931 37.1875H24.056C22.8478 37.1875 21.8685 36.2081 21.8685 35C21.8685 33.7919 22.8478 32.8125 24.056 32.8125Z" fill="#0057B8"/>
</svg>
