<svg width="70" height="70" viewBox="0 0 70 70" fill="none" xmlns="http://www.w3.org/2000/svg">
<path fill-rule="evenodd" clip-rule="evenodd" d="M46.6667 25.55C46.5714 30.314 42.6816 34.1259 37.9167 34.125C33.2085 34.0474 29.4061 30.2578 29.3125 25.55V22.2541C29.3119 20.3128 30.0949 18.4533 31.4841 17.0971C32.8732 15.741 34.7509 15.0028 36.6917 15.05H39.4333C41.3491 15.0422 43.189 15.7978 44.5463 17.1497C45.9037 18.5016 46.6667 20.3384 46.6667 22.2541V25.55ZM36.6042 19.3375C34.9934 19.3375 33.6875 20.6433 33.6875 22.2541L33.8042 25.55C33.8042 27.8857 35.6976 29.7791 38.0333 29.7791C40.369 29.7791 42.2625 27.8857 42.2625 25.55V22.2541C42.2625 20.6433 40.9567 19.3375 39.3458 19.3375H36.6042Z" fill="#0057B8"/>
<path fill-rule="evenodd" clip-rule="evenodd" d="M68.4834 44.6249L68.8042 49.1749C69.1413 50.5989 68.8121 52.0989 67.9098 53.2509C67.0075 54.4029 65.63 55.0818 64.1667 55.0957H51.0709C49.9284 56.3135 48.3364 57.0093 46.6667 57.0207H29.1667C27.4125 57.0442 25.7333 56.3109 24.5583 55.0082C24.287 55.0383 24.0131 55.0383 23.7417 55.0082H10.3542C8.93077 54.9545 7.60428 54.273 6.73172 53.1471C5.85916 52.0212 5.53019 50.5666 5.83335 49.1749L6.27085 44.6249C6.69645 42.4538 8.5797 40.8743 10.7917 40.8332H23.3334C23.8569 40.8042 24.3812 40.8734 24.8792 41.0374C25.9982 39.6396 27.6971 38.8331 29.4875 38.8499H46.3459C48.0315 38.8436 49.6375 39.5668 50.75 40.8332C50.9532 40.8045 51.1594 40.8045 51.3625 40.8332H63.9625C66.1745 40.8743 68.0578 42.4538 68.4834 44.6249ZM51.1875 50.6332H64.4C64.4893 50.4613 64.4999 50.2593 64.4292 50.079V49.4957L64.1375 45.354L63.9625 45.1207H51.45H50.75C49.517 45.1252 48.3401 44.6056 47.5125 43.6915C47.2231 43.3454 46.797 43.143 46.3459 43.1374H29.4875C28.9989 43.1436 28.5387 43.3684 28.2334 43.7499C27.4008 44.7382 26.1715 45.3048 24.8792 45.2957C24.35 45.2981 23.8253 45.1991 23.3334 45.004H10.9375C10.7625 45.004 10.7625 45.0624 10.7625 45.2374L10.4709 49.379V49.9624C10.391 50.1385 10.391 50.3404 10.4709 50.5165H23.8584C24.1688 50.488 24.4812 50.488 24.7917 50.5165C25.977 50.5385 27.0987 51.057 27.8834 51.9457C28.2052 52.3223 28.6715 52.5449 29.1667 52.5582H46.7834C47.2794 52.5486 47.7472 52.3253 48.0667 51.9457C48.8868 51.1043 50.0126 50.6308 51.1875 50.6332Z" fill="#0057B8"/>
<path fill-rule="evenodd" clip-rule="evenodd" d="M64.0792 29.9249C64.0792 33.4688 61.2064 36.3416 57.6625 36.3416C55.9557 36.3494 54.3161 35.6767 53.1064 34.4725C51.8967 33.2683 51.2167 31.6318 51.2167 29.9249V27.4749C51.2167 26.0439 51.7852 24.6714 52.7971 23.6595C53.809 22.6476 55.1815 22.0791 56.6125 22.0791H58.6834C61.6634 22.0791 64.0792 24.4949 64.0792 27.4749V29.9249ZM55.8907 26.8698C55.6992 27.0612 55.5917 27.3209 55.5917 27.5916V30.0416C55.7159 31.083 56.5991 31.8671 57.6479 31.8671C58.6967 31.8671 59.5799 31.083 59.7042 30.0416V27.5916C59.7042 27.0278 59.2471 26.5708 58.6834 26.5708H56.6125C56.3418 26.5708 56.0821 26.6783 55.8907 26.8698Z" fill="#0057B8"/>
<path fill-rule="evenodd" clip-rule="evenodd" d="M21.6478 34.4725C20.4381 35.6767 18.7985 36.3494 17.0917 36.3416C15.3899 36.3416 13.7578 35.6656 12.5544 34.4622C11.3511 33.2588 10.675 31.6267 10.675 29.9249V27.4749C10.675 24.4949 13.0908 22.0791 16.0709 22.0791H18.1417C21.1217 22.0791 23.5375 24.4949 23.5375 27.4749V29.9249C23.5375 31.6318 22.8575 33.2683 21.6478 34.4725ZM16.0709 26.5708C15.5071 26.5708 15.05 27.0278 15.05 27.5916V30.0416C15.1743 31.083 16.0575 31.8671 17.1063 31.8671C18.1551 31.8671 19.0383 31.083 19.1625 30.0416V27.5916C19.1625 27.0278 18.7055 26.5708 18.1417 26.5708H16.0709Z" fill="#0057B8"/>
</svg>
