<svg width="40" height="40" viewBox="0 0 40 40" fill="none" xmlns="http://www.w3.org/2000/svg">
<path d="M23.4333 16.5166H25.1C25.3151 16.5167 25.5211 16.4301 25.6716 16.2765C25.8221 16.1228 25.9044 15.915 25.9 15.7V13.0333C25.9014 12.6163 25.5822 12.2681 25.1666 12.2333C25.1666 12.2333 23.9833 12.1333 22.5333 12.1333C18.9666 12.1333 17 14.25 17 18.0833V21.0333H13.7166C13.5031 21.0287 13.2969 21.1115 13.1459 21.2626C12.9948 21.4136 12.912 21.6198 12.9166 21.8333V24.2666C12.912 24.4802 12.9948 24.6863 13.1459 24.8374C13.2969 24.9884 13.5031 25.0712 13.7166 25.0666H16.95V34.5H21.8166V25.0666H24.75C25.1528 25.0625 25.4924 24.7653 25.55 24.3666L25.85 21.9333C25.8805 21.703 25.8073 21.471 25.65 21.3C25.4973 21.1293 25.2789 21.0322 25.05 21.0333H21.8166V18.1833C21.8162 17.282 22.5324 16.5437 23.4333 16.5166Z" fill="#0E0E0E"/>
<path fill-rule="evenodd" clip-rule="evenodd" d="M3.33331 19.8502C3.33331 10.7283 10.7281 3.3335 19.85 3.3335C24.2305 3.3335 28.4316 5.07364 31.529 8.17112C34.6265 11.2686 36.3666 15.4697 36.3666 19.8502C36.3666 28.9721 28.9719 36.3668 19.85 36.3668C10.7281 36.3668 3.33331 28.9721 3.33331 19.8502ZM33.8666 19.8502C33.8666 12.109 27.5912 5.8335 19.85 5.8335C12.1164 5.85182 5.85163 12.1166 5.83331 19.8502C5.83331 27.5914 12.1088 33.8668 19.85 33.8668C27.5912 33.8668 33.8666 27.5914 33.8666 19.8502Z" fill="#0E0E0E"/>
</svg>
