<svg width="40" height="40" viewBox="0 0 40 40" fill="none" xmlns="http://www.w3.org/2000/svg">
<path fill-rule="evenodd" clip-rule="evenodd" d="M13.3333 3.3335H26.1666C31.6895 3.3335 36.1666 7.81065 36.1666 13.3335V26.1668C36.1666 31.6897 31.6895 36.1668 26.1666 36.1668H13.3333C7.81046 36.1668 3.33331 31.6897 3.33331 26.1668V13.3335C3.33331 7.81065 7.81046 3.3335 13.3333 3.3335ZM33.6666 13.3335C33.6575 9.19516 30.305 5.84266 26.1666 5.8335H13.3333C9.19498 5.84266 5.84248 9.19516 5.83331 13.3335V26.1668C5.84248 30.3052 9.19498 33.6577 13.3333 33.6668H26.1666C30.305 33.6577 33.6575 30.3052 33.6666 26.1668V13.3335Z" fill="#0E0E0E"/>
<path fill-rule="evenodd" clip-rule="evenodd" d="M12.5833 19.7502C12.5925 15.7959 15.7957 12.5927 19.75 12.5835C23.7042 12.5927 26.9075 15.7959 26.9166 19.7502C26.9166 23.7082 23.708 26.9168 19.75 26.9168C15.7919 26.9168 12.5833 23.7082 12.5833 19.7502ZM24.4166 19.7502C24.4166 17.1728 22.3273 15.0835 19.75 15.0835C17.1764 15.0926 15.0925 17.1766 15.0833 19.7502C15.0833 22.3275 17.1727 24.4168 19.75 24.4168C22.3273 24.4168 24.4166 22.3275 24.4166 19.7502Z" fill="#0E0E0E"/>
<path d="M25.85 10.842C25.85 9.84331 26.6596 9.03369 27.6583 9.03369C28.657 9.03369 29.4666 9.84331 29.4666 10.842C29.4666 11.8407 28.657 12.6504 27.6583 12.6504C26.6596 12.6504 25.85 11.8407 25.85 10.842Z" fill="#0E0E0E"/>
</svg>
