<svg width="70" height="70" viewBox="0 0 70 70" fill="none" xmlns="http://www.w3.org/2000/svg">
<path fill-rule="evenodd" clip-rule="evenodd" d="M38.0042 15.925C37.9885 17.1265 37.0182 18.0968 35.8167 18.1125C34.6151 18.0968 33.6449 17.1265 33.6292 15.925V8.02081C33.6292 6.81269 34.6086 5.83331 35.8167 5.83331C37.0248 5.83331 38.0042 6.81269 38.0042 8.02081V15.925ZM36.0208 20.7958H35.8167C30.2456 20.6948 25.104 23.7771 22.5676 28.7383C20.0312 33.6994 20.5434 39.6723 23.8875 44.1291C26.8007 48.0273 28.4222 52.7388 28.525 57.6041C28.9905 61.2767 32.1147 64.03 35.8167 64.03C39.5186 64.03 42.6428 61.2767 43.1083 57.6041C42.9537 52.9347 44.4053 48.3534 47.2208 44.625C49.2081 42.134 50.3247 39.0606 50.4 35.875C50.5001 27.7766 44.1148 21.0805 36.0208 20.7958ZM35.8167 20.7958L35.9625 25.1708C39.8957 25.2298 43.4537 27.5185 45.1382 31.0733C46.8227 34.628 46.3409 38.8311 43.8958 41.9125C41.5345 44.9671 39.9528 48.551 39.2875 52.3541H32.2875C31.4102 48.4325 29.743 44.7308 27.3875 41.475C25.1494 38.3241 24.8583 34.1872 26.6333 30.754C28.4082 27.3209 31.9518 25.1665 35.8167 25.1708V20.7958ZM35.8167 60.5208C34.2058 60.5208 32.9 59.215 32.9 57.6041V56.8458H38.9083V57.6625C38.8939 58.4571 38.5558 59.2115 37.9722 59.7511C37.3886 60.2906 36.61 60.5686 35.8167 60.5208ZM57.1375 14.2041C56.2835 13.3512 54.8999 13.3512 54.0458 14.2041L48.5917 19.6291C47.7508 20.4995 47.7508 21.8796 48.5917 22.75C49.4736 23.5617 50.8306 23.5617 51.7125 22.75L57.1375 17.2958C57.9905 16.4418 57.9905 15.0582 57.1375 14.2041ZM55.4167 32.1708H63.0875C64.2956 32.1708 65.275 33.1502 65.275 34.3583C65.275 35.5664 64.2956 36.5458 63.0875 36.5458H55.4167C54.2085 36.5458 53.2292 35.5664 53.2292 34.3583C53.2292 33.1502 54.2085 32.1708 55.4167 32.1708ZM15.6917 32.1708H8.02083C6.81271 32.1708 5.83333 33.1502 5.83333 34.3583C5.83333 35.5664 6.81271 36.5458 8.02083 36.5458H15.6917C16.8998 36.5458 17.8792 35.5664 17.8792 34.3583C17.8792 33.1502 16.8998 32.1708 15.6917 32.1708ZM23.3753 21.1896C23.3753 21.7764 23.1395 22.3387 22.7208 22.75C22.3045 23.147 21.7502 23.3666 21.175 23.3625C20.6003 23.3636 20.0471 23.1444 19.6292 22.75L14.2042 17.2958C13.6189 16.7505 13.378 15.9292 13.576 15.1541C13.7739 14.3791 14.3791 13.7739 15.1542 13.5759C15.9292 13.378 16.7505 13.6189 17.2958 14.2041L22.7208 19.6291C23.1395 20.0404 23.3753 20.6027 23.3753 21.1896Z" fill="#0057B8"/>
</svg>
