<svg width="70" height="70" viewBox="0 0 70 70" fill="none" xmlns="http://www.w3.org/2000/svg">
<path d="M39.2661 40.5475C39.2661 37.8735 37.0984 35.7058 34.4244 35.7058C31.7504 35.7058 29.5827 37.8735 29.5827 40.5475C29.5787 41.6811 29.9825 42.7784 30.7202 43.6391C31.4636 44.4138 31.7213 45.5342 31.3911 46.5558L30.7786 48.3641C30.5417 49.1773 30.6983 50.0545 31.2019 50.7355C31.7055 51.4166 32.4983 51.8232 33.3452 51.835H35.5036C36.3785 51.8347 37.1997 51.4124 37.7088 50.7008C38.2179 49.9892 38.3525 49.0757 38.0702 48.2475L37.3411 46.4391C37.0108 45.4176 37.2685 44.2971 38.0119 43.5225C38.7663 42.7088 39.2103 41.6556 39.2661 40.5475Z" fill="#0057B8"/>
<path fill-rule="evenodd" clip-rule="evenodd" d="M48.2786 23.6891V14.5891C48.2802 12.2118 47.3144 9.93619 45.6034 8.28571C43.8924 6.63522 41.5835 5.75197 39.2077 5.83914H29.6411C27.2654 5.75197 24.9564 6.63522 23.2454 8.28571C21.5344 9.93619 20.5686 12.2118 20.5702 14.5891V23.6891C14.5284 25.8164 10.854 31.9404 11.8202 38.2725L14.5911 55.1016C15.9577 61.8054 21.9261 66.5703 28.7661 66.4183H40.0827C46.9716 66.5912 52.9827 61.7749 54.3161 55.0141L57.0869 38.185C58.0007 31.8672 54.307 25.7885 48.2786 23.6891ZM24.9452 14.5891C25.0557 12.1031 27.1545 10.1737 29.6411 10.2725H39.2077C41.6943 10.1737 43.7931 12.1031 43.9036 14.5891V22.6683H42.8536H25.9952H24.9452V14.5891ZM49.0077 54.1391L51.9244 37.2516C52.2138 35.0669 51.5195 32.8663 50.0286 31.2433C48.2155 29.1872 45.5946 28.0259 42.8536 28.0641H25.9952C23.2635 28.0112 20.6441 29.1505 18.8202 31.185C17.3649 32.8469 16.7236 35.0699 17.0702 37.2516L19.8411 54.1391C20.7454 58.2993 24.5127 61.2048 28.7661 61.0225H40.0827C44.3361 61.2048 48.1034 58.2993 49.0077 54.1391Z" fill="#0057B8"/>
</svg>
