<svg width="70" height="70" viewBox="0 0 70 70" fill="none" xmlns="http://www.w3.org/2000/svg">
<path fill-rule="evenodd" clip-rule="evenodd" d="M16.9444 5.83325H53.0555C59.192 5.83325 64.1667 10.8079 64.1667 16.9444V53.0555C64.1667 59.192 59.192 64.1666 53.0555 64.1666H16.9444C10.8079 64.1666 5.83333 59.192 5.83333 53.0555V16.9444C5.83333 10.8079 10.8079 5.83325 16.9444 5.83325ZM53.0555 59.9999C56.8909 59.9999 60 56.8908 60 53.0555V16.9444C60 13.1091 56.8909 9.99992 53.0555 9.99992H16.9444C13.1091 9.99992 9.99999 13.1091 9.99999 16.9444V53.0555C9.99999 56.8908 13.1091 59.9999 16.9444 59.9999H53.0555Z" fill="#0057B8"/>
<path d="M50.2778 25.9722H41.9444C40.7938 25.9722 39.8611 26.9049 39.8611 28.0555C39.8611 29.2061 40.7938 30.1388 41.9444 30.1388H44.5278L34.6389 40.0277L29.0833 34.4722C27.6091 33.003 25.2242 33.003 23.75 34.4722L16.5 41.4999C15.6876 42.3133 15.6876 43.631 16.5 44.4444C16.8886 44.8378 17.4193 45.0581 17.9722 45.0555C18.5258 45.0613 19.0577 44.8405 19.4444 44.4444L26.3055 37.5833L31.8611 43.1388C33.3449 44.6112 35.7385 44.6112 37.2222 43.1388L48.0833 32.2777V36.3888C48.0833 37.5394 49.0161 38.4722 50.1667 38.4722C51.3173 38.4722 52.25 37.5394 52.25 36.3888V28.0555C52.2379 26.9524 51.3785 26.0447 50.2778 25.9722V25.9722Z" fill="#0057B8"/>
</svg>
