<svg width="17" height="23" viewBox="0 0 17 23" fill="none" xmlns="http://www.w3.org/2000/svg">
<path d="M5.46399 6.68001C6.74399 6.68001 8.05599 7.39467 9.39999 8.82401C10.7653 10.232 12.0133 12.1413 13.144 14.552V0.600006H16.12V23H0.759995C0.759995 17.4533 1.14399 13.3467 1.91199 10.68C2.67999 8.01334 3.86399 6.68001 5.46399 6.68001ZM12.472 20.184C11.9387 18.4773 11.2667 16.824 10.456 15.224C9.64533 13.6027 8.82399 12.3013 7.99199 11.32C7.15999 10.3173 6.44533 9.81601 5.84799 9.81601C5.54933 9.81601 5.26133 10.2427 4.98399 11.096C4.70666 11.9493 4.48266 13.1653 4.31199 14.744C4.14133 16.3227 4.04533 18.136 4.02399 20.184H12.472Z" fill="#0057B8"/>
</svg>
