<svg width="142" height="80" viewBox="0 0 142 80" fill="none" xmlns="http://www.w3.org/2000/svg">
<path d="M114.522 60.32C113.221 60.32 112.039 60.0177 110.976 59.413C109.932 58.79 109.107 57.9379 108.502 56.8568C107.898 55.7757 107.595 54.548 107.595 53.1737C107.595 51.8728 107.861 50.6817 108.393 49.6006C108.924 48.5012 109.666 47.6308 110.619 46.9895C111.572 46.3482 112.662 46.0275 113.89 46.0275C114.513 46.0275 115.044 46.1008 115.484 46.2474C115.942 46.394 116.418 46.5955 116.913 46.8521C117.39 47.1086 117.738 47.2369 117.958 47.2369C118.196 47.2369 118.333 47.1727 118.37 47.0445C118.406 46.8979 118.425 46.6505 118.425 46.3023V46L120.514 46.5497C120.569 46.8429 120.596 47.1269 120.596 47.4018C120.596 48.1897 120.358 48.7944 119.882 49.2158C119.405 49.6373 118.846 49.848 118.205 49.848C117.82 49.848 117.481 49.793 117.188 49.6831C116.895 49.5731 116.547 49.4082 116.143 49.1883C115.685 48.9501 115.31 48.776 115.017 48.6661C114.723 48.5562 114.375 48.5012 113.972 48.5012C112.909 48.5012 112.039 48.9318 111.361 49.793C110.683 50.6542 110.344 51.7628 110.344 53.1188C110.344 54.5663 110.729 55.7299 111.498 56.6094C112.268 57.489 113.276 57.9287 114.522 57.9287C115.53 57.9287 116.382 57.6356 117.078 57.0492C117.774 56.4445 118.214 55.6383 118.397 54.6305L120.789 55.4825C120.624 56.417 120.248 57.2508 119.662 57.9837C119.094 58.7167 118.361 59.2939 117.463 59.7153C116.565 60.1184 115.585 60.32 114.522 60.32Z" fill="#0E0E0E"/>
<path d="M84.184 44V60H81.176V46.88H73.112V60H70.104V44H84.184Z" fill="#0E0E0E"/>
<path d="M66.104 44V60H63.096V46.88H55.032V60H52.024V44H66.104Z" fill="#0E0E0E"/>
<path d="M39.704 60.32C38.1467 60.32 36.728 59.9573 35.448 59.232C34.1893 58.5067 33.1973 57.5147 32.472 56.256C31.7467 54.976 31.384 53.5573 31.384 52C31.384 50.464 31.7467 49.0667 32.472 47.808C33.2187 46.528 34.2213 45.5253 35.48 44.8C36.76 44.0533 38.168 43.68 39.704 43.68C41.304 43.68 42.7333 44.0427 43.992 44.768C45.2507 45.472 46.232 46.4533 46.936 47.712C47.6613 48.9707 48.024 50.4 48.024 52C48.024 53.5573 47.6613 54.976 46.936 56.256C46.2107 57.5147 45.208 58.5067 43.928 59.232C42.6693 59.9573 41.2613 60.32 39.704 60.32ZM34.584 52C34.584 53.6 35.064 54.912 36.024 55.936C36.984 56.96 38.2107 57.472 39.704 57.472C41.1973 57.472 42.424 56.96 43.384 55.936C44.344 54.912 44.824 53.6 44.824 52C44.824 50.4 44.344 49.088 43.384 48.064C42.424 47.04 41.1973 46.528 39.704 46.528C38.2107 46.528 36.984 47.04 36.024 48.064C35.064 49.088 34.584 50.4 34.584 52Z" fill="#0E0E0E"/>
<path d="M20.088 60.32C18.5733 60.32 17.1973 59.968 15.96 59.264C14.744 58.5387 13.784 57.5467 13.08 56.288C12.376 55.0293 12.024 53.6 12.024 52C12.024 50.4853 12.3333 49.0987 12.952 47.84C13.5707 46.56 14.4347 45.5467 15.544 44.8C16.6533 44.0533 17.9227 43.68 19.352 43.68C20.0773 43.68 20.696 43.7653 21.208 43.936C21.7413 44.1067 22.296 44.3413 22.872 44.64C23.4267 44.9387 23.832 45.088 24.088 45.088C24.3653 45.088 24.5253 45.0133 24.568 44.864C24.6107 44.6933 24.632 44.4053 24.632 44V43.648L27.064 44.288C27.128 44.6293 27.16 44.96 27.16 45.28C27.16 46.1973 26.8827 46.9013 26.328 47.392C25.7733 47.8827 25.1227 48.128 24.376 48.128C23.928 48.128 23.5333 48.064 23.192 47.936C22.8507 47.808 22.4453 47.616 21.976 47.36C21.4427 47.0827 21.0053 46.88 20.664 46.752C20.3227 46.624 19.9173 46.56 19.448 46.56C18.2107 46.56 17.1973 47.0613 16.408 48.064C15.6187 49.0667 15.224 50.3573 15.224 51.936C15.224 53.6213 15.672 54.976 16.568 56C17.464 57.024 18.6373 57.536 20.088 57.536C21.2613 57.536 22.2533 57.1947 23.064 56.512C23.8747 55.808 24.3867 54.8693 24.6 53.696L27.384 54.688C27.192 55.776 26.7547 56.7467 26.072 57.6C25.4107 58.4533 24.5573 59.1253 23.512 59.616C22.4667 60.0853 21.3253 60.32 20.088 60.32Z" fill="#0E0E0E"/>
<path d="M94.568 20V36H91.56V20H94.568ZM89.704 16.96C90.0667 16.2773 90.312 15.744 90.44 15.36C90.5893 14.9547 90.664 14.5707 90.664 14.208C90.664 14.016 90.6107 13.8667 90.504 13.76C90.3973 13.632 90.28 13.568 90.152 13.568C89.96 13.568 89.8 13.6853 89.672 13.92C89.5653 14.1333 89.5333 14.4533 89.576 14.88L87.528 14.304C87.4853 14.048 87.464 13.856 87.464 13.728C87.464 12.9387 87.752 12.2987 88.328 11.808C88.8827 11.296 89.5973 11.04 90.472 11.04C91.2827 11.04 91.944 11.296 92.456 11.808C92.9893 12.2987 93.256 12.9387 93.256 13.728C93.256 14.8587 92.8507 16.2133 92.04 17.792L89.704 16.96ZM96.072 10.72L98.856 11.712L95.944 17.76L93.576 16.896L96.072 10.72Z" fill="#0E0E0E"/>
<path d="M73.24 24.352C73.24 23.456 73.496 22.656 74.008 21.952C74.52 21.2267 75.2133 20.672 76.088 20.288C76.984 19.8827 77.9973 19.68 79.128 19.68C80.728 19.68 82.0827 20.0213 83.192 20.704C84.3227 21.3867 85.016 22.272 85.272 23.36L82.488 24.64C82.3173 23.9787 81.944 23.4453 81.368 23.04C80.8133 22.6347 80.0987 22.432 79.224 22.432C78.2853 22.432 77.56 22.6027 77.048 22.944C76.536 23.2853 76.28 23.7653 76.28 24.384C76.28 24.9173 76.44 25.344 76.76 25.664C77.1013 25.9627 77.528 26.1973 78.04 26.368C78.5733 26.5173 79.3733 26.6987 80.44 26.912C81.7627 27.1893 82.8293 27.4773 83.64 27.776C84.472 28.0747 85.176 28.5547 85.752 29.216C86.3493 29.856 86.648 30.7413 86.648 31.872C86.648 33.2587 86.1573 34.3573 85.176 35.168C84.216 35.9787 82.872 36.384 81.144 36.384C80.6107 36.384 80.0773 36.32 79.544 36.192C79.032 36.064 78.3173 35.8507 77.4 35.552C76.76 35.3387 76.2267 35.1787 75.8 35.072C75.3733 34.944 75 34.88 74.68 34.88C74.104 34.88 73.8267 35.2533 73.848 36L73.88 36.352L71.256 35.968C71.192 35.5413 71.16 35.1573 71.16 34.816C71.16 33.856 71.48 33.152 72.12 32.704C72.7813 32.256 73.5173 32.032 74.328 32.032C74.9893 32.032 75.5867 32.1067 76.12 32.256C76.6533 32.384 77.3147 32.5973 78.104 32.896C78.7867 33.152 79.3413 33.344 79.768 33.472C80.216 33.6 80.6853 33.664 81.176 33.664C81.9013 33.664 82.4667 33.5253 82.872 33.248C83.2987 32.9493 83.512 32.544 83.512 32.032C83.512 31.3707 83.2133 30.8693 82.616 30.528C82.0187 30.1653 80.9307 29.8027 79.352 29.44C77.9653 29.12 76.8667 28.8107 76.056 28.512C75.2453 28.192 74.5733 27.7013 74.04 27.04C73.5067 26.3787 73.24 25.4827 73.24 24.352Z" fill="#0E0E0E"/>
<path d="M54.024 28C54.024 26.4853 54.3227 25.0987 54.92 23.84C55.5387 22.56 56.4027 21.5467 57.512 20.8C58.6427 20.0533 59.9227 19.68 61.352 19.68C62.0773 19.68 62.696 19.7653 63.208 19.936C63.7413 20.1067 64.296 20.3413 64.872 20.64C65.4267 20.9387 65.832 21.088 66.088 21.088C66.3653 21.088 66.5253 21.0133 66.568 20.864C66.6107 20.6933 66.632 20.4053 66.632 20V19.424L69 19.84C69.1067 20.4373 69.16 20.9173 69.16 21.28C69.16 22.1973 68.8827 22.9013 68.328 23.392C67.7733 23.8827 67.1227 24.128 66.376 24.128C65.9067 24.128 65.48 24.064 65.096 23.936C64.7333 23.808 64.3067 23.6053 63.816 23.328C63.304 23.0507 62.8453 22.848 62.44 22.72C62.056 22.5707 61.6187 22.496 61.128 22.496C60.104 22.496 59.2293 22.8587 58.504 23.584C57.7787 24.288 57.3307 25.2907 57.16 26.592H63.912V29.408H57.192C57.448 30.6027 58.0027 31.584 58.856 32.352C59.7093 33.0987 60.744 33.472 61.96 33.472C63.1547 33.472 64.1573 33.152 64.968 32.512C65.8 31.872 66.344 31.008 66.6 29.92L69.352 30.912C68.9893 32.512 68.136 33.8133 66.792 34.816C65.448 35.8187 63.8373 36.32 61.96 36.32C60.4667 36.32 59.112 35.9787 57.896 35.296C56.7013 34.592 55.752 33.6107 55.048 32.352C54.3653 31.072 54.024 29.6213 54.024 28Z" fill="#0E0E0E"/>
<path d="M38.464 19.68C39.744 19.68 41.056 20.3947 42.4 21.824C43.7653 23.232 45.0133 25.1413 46.144 27.552V13.6H49.12V36H33.76C33.76 30.4533 34.144 26.3467 34.912 23.68C35.68 21.0133 36.864 19.68 38.464 19.68ZM45.472 33.184C44.9387 31.4773 44.2667 29.824 43.456 28.224C42.6453 26.6027 41.824 25.3013 40.992 24.32C40.16 23.3173 39.4453 22.816 38.848 22.816C38.5493 22.816 38.2613 23.2427 37.984 24.096C37.7067 24.9493 37.4827 26.1653 37.312 27.744C37.1413 29.3227 37.0453 31.136 37.024 33.184H45.472Z" fill="#0E0E0E"/>
<path fill-rule="evenodd" clip-rule="evenodd" d="M120 23V36H123V23H131V44H128H125V47V49H128V47H131V60H134V47H137V49H140V47V44H137H134V23V20H131H123H120V23Z" fill="#0E0E0E"/>
<path fill-rule="evenodd" clip-rule="evenodd" d="M100.394 20H115.72V38.25C115.82 40.25 114.894 44.25 110.394 44.25C108.679 44.25 107.371 43.5984 106.339 43.0842C106.092 42.9614 105.861 42.8464 105.644 42.75C105.351 42.6196 105.109 42.4893 104.895 42.3744C104.29 42.0488 103.916 41.8478 103.269 42.125C102.708 42.3658 102.867 43.3283 103.021 44.2511C103.106 44.7653 103.189 45.2672 103.144 45.625C103.019 46.625 102.269 48.625 99.5194 48C98.2877 47.7201 97.733 47.3649 97.2714 47.0693C96.7024 46.7049 96.2747 46.431 94.8944 46.5C92.3944 46.625 91.1444 49.375 91.1444 50.625H97.8944V53.375H91.1444C91.4361 54.7917 92.7944 57.6 95.8944 57.5C98.9944 57.4 100.353 55.125 100.644 54L103.394 55C102.894 56.7917 100.694 60.375 95.8944 60.375C89.8944 60.375 88.1444 54.625 88.0194 53C87.8944 51.375 88.1444 43.875 95.8944 43.75C97.4204 43.75 98.284 44.2468 98.957 44.6339C99.1109 44.7224 99.2548 44.8052 99.3944 44.875C100.144 45.25 100.769 44.75 100.394 43.625C100.019 42.5 99.5194 38.875 104.019 39.25C105.495 39.3484 106.894 40.1439 107.91 40.7219C108.185 40.8782 108.432 41.0186 108.644 41.125C109.644 41.625 112.894 42.5 112.894 39.25V28.125C111.769 30.8333 108.594 36.275 104.894 36.375C101.194 36.475 100.353 25.5 100.394 20ZM103.644 22.75H112.08C110.935 26.25 107.994 33.225 105.394 33.125C104.194 33.025 103.728 26.1667 103.644 22.75Z" fill="#0E0E0E"/>
<rect x="22" y="28" width="8" height="8" fill="#FFD700"/>
<rect x="12" y="28" width="8" height="8" fill="#0057B8"/>
</svg>
