<svg width="40" height="40" viewBox="0 0 40 40" fill="none" xmlns="http://www.w3.org/2000/svg">
<mask id="mask0_26_220" style="mask-type:luminance" maskUnits="userSpaceOnUse" x="3" y="6" width="33" height="28">
<path fill-rule="evenodd" clip-rule="evenodd" d="M3.33331 6.6665H35.7763V33.2857H3.33331V6.6665Z" fill="white"/>
</mask>
<g mask="url(#mask0_26_220)">
<path fill-rule="evenodd" clip-rule="evenodd" d="M7.61349 30.475C9.52016 31.2067 11.6335 31.5033 11.6568 31.5067C11.7052 31.515 13.7785 31.8533 17.3752 31.305C20.9168 30.765 23.9718 28.4667 24.0018 28.4433C24.1068 28.375 26.3985 26.975 28.8768 22.7817C31.3435 18.6067 30.9218 13.8867 30.9168 13.84C30.8918 13.5767 30.9902 13.3183 31.1868 13.1417C31.1868 13.1417 31.6968 12.675 32.3768 12.12C31.9085 12.205 31.5002 12.265 31.4202 12.2767C31.0335 12.325 30.6768 12.1233 30.5302 11.7733C30.3852 11.4217 30.4935 11.0167 30.7968 10.7867C30.8068 10.7817 31.3068 10.4 31.9235 9.865C31.0302 10.1667 30.2702 10.305 30.2252 10.3133C29.8652 10.37 29.5168 10.205 29.3485 9.89166C29.3535 9.935 29.0652 9.665 28.0468 8.985C27.0585 8.32666 25.3518 8.3 24.7785 8.34666C24.7802 8.34833 22.4252 8.64 20.9885 10.64C19.5635 12.6217 20.1435 14.9967 20.1485 15.0217C20.2168 15.2833 20.1518 15.5617 19.9768 15.7683C19.8018 15.9733 19.5302 16.075 19.2702 16.06L17.7085 15.925C17.4018 15.9017 15.6785 15.6067 13.9302 14.9883C12.1768 14.37 11.1302 13.7267 9.68182 12.8383C8.71349 12.245 7.43182 11.0033 6.59016 10.14C6.33182 10.945 6.13182 12.135 6.55016 13.4067C7.22516 15.4667 8.68682 16.3233 8.70016 16.3317C9.01349 16.5033 9.18016 16.8567 9.11682 17.2083C9.05349 17.56 8.77349 17.8317 8.41849 17.8833C8.25516 17.9133 7.84016 17.9217 6.92349 17.7317C6.74849 17.6967 6.57682 17.6533 6.41516 17.6017C6.56516 18.25 6.91849 19.2317 7.74849 20.0933C9.12516 21.5267 10.5185 21.7083 10.5768 21.715C10.9868 21.7633 11.3035 22.1067 11.3152 22.52C11.3268 22.9333 11.0385 23.29 10.6335 23.3633C10.6335 23.3633 9.68349 23.5333 9.08849 23.5917C9.06182 23.5933 9.03516 23.5967 9.00682 23.5983C9.05682 23.68 9.10849 23.7617 9.16016 23.84C9.17516 23.865 9.95182 25.0833 11.2485 25.655C12.5618 26.2333 13.4468 26.1867 13.4535 26.1833C13.8252 26.1517 14.1635 26.375 14.2935 26.7167C14.4235 27.06 14.3202 27.4467 14.0302 27.67C13.9685 27.72 12.4868 28.8583 9.99849 29.8783C9.22516 30.1933 8.40516 30.3767 7.61349 30.475ZM13.5168 33.2867C12.1852 33.2867 11.4502 33.1617 11.3985 33.1517C11.3218 33.1433 8.76349 32.7833 6.56516 31.8483C3.17182 30.41 3.27016 29.93 3.36516 29.4667C3.45016 29.0483 3.93682 28.745 4.36349 28.81C6.26349 29.0333 8.08682 28.8583 9.36682 28.335C10.0918 28.0383 10.7252 27.73 11.2518 27.4467C11.0368 27.3717 10.8118 27.2833 10.5768 27.18C8.79516 26.395 7.79349 24.8 7.75182 24.7317C7.57182 24.455 7.11516 23.7267 6.98516 23.3C6.86349 22.8967 6.85182 22.8483 6.85182 22.8483C6.79182 22.5717 6.87516 22.275 7.07349 22.075C7.13349 22.0133 7.20349 21.9633 7.27849 21.9217C7.03516 21.725 6.79016 21.5017 6.54682 21.25C4.71182 19.34 4.64182 17.0433 4.64016 16.9467L4.60849 16.3133C4.59349 16.005 4.75016 15.715 5.01516 15.5567C5.21349 15.4383 5.45016 15.4117 5.66682 15.47C5.40182 15.0267 5.15849 14.515 4.96682 13.925C3.96682 10.885 5.56516 8.31666 5.63516 8.21C5.77349 7.98833 6.00849 7.84666 6.26682 7.825C6.53016 7.80166 6.78182 7.90333 6.95682 8.09666C7.58182 8.79166 9.44849 10.74 10.5535 11.4167C11.9652 12.285 12.8985 12.8567 14.4852 13.4167C16.1168 13.9933 17.6852 14.25 17.8385 14.2633L18.3735 14.31C18.3018 13.1667 18.4318 11.34 19.6352 9.66666C21.5168 7.04833 24.4968 6.7 24.6235 6.68833C24.7502 6.675 27.2952 6.48166 28.9718 7.59833C29.6502 8.05166 30.0718 8.36333 30.3385 8.585C30.8102 8.475 31.6135 8.255 32.3085 7.91333L33.7168 7.21833C34.0152 7.065 34.3752 7.10833 34.6318 7.32833C34.8868 7.54666 34.9852 7.89666 34.8852 8.21666C34.8435 8.34 34.5785 9.14 34.1052 9.90166C34.3985 9.78666 34.6202 9.69333 34.6235 9.69166C34.9668 9.555 35.3585 9.65166 35.5918 9.93666C35.8235 10.225 35.8385 10.63 35.6302 10.9333C35.5185 11.0967 34.5085 12.5483 33.6618 13.225C33.2335 13.5683 32.8518 13.895 32.6035 14.1117C32.6635 15.465 32.6352 19.6967 30.3135 23.6283C27.5885 28.24 25.0352 29.7633 24.9285 29.825C24.8752 29.8733 21.6002 32.3467 17.6268 32.9517C15.9285 33.2133 14.5452 33.2867 13.5168 33.2867Z" fill="#0E0E0E"/>
</g>
</svg>
